<?xml version="1.0" encoding="UTF-8" standalone="no"?>
<svg
   height="37"
   width="195"
   version="1.1"
   id="svg16"
   sodipodi:docname="university_of_florida2.svg"
   inkscape:version="1.1.1 (3bf5ae0d25, 2021-09-20)"
   xmlns:inkscape="http://www.inkscape.org/namespaces/inkscape"
   xmlns:sodipodi="http://sodipodi.sourceforge.net/DTD/sodipodi-0.dtd"
   xmlns="http://www.w3.org/2000/svg"
   xmlns:svg="http://www.w3.org/2000/svg">
  <defs
     id="defs20" />
  <sodipodi:namedview
     id="namedview18"
     pagecolor="#ffffff"
     bordercolor="#666666"
     borderopacity="1.0"
     inkscape:pageshadow="2"
     inkscape:pageopacity="0.0"
     inkscape:pagecheckerboard="0"
     showgrid="false"
     inkscape:zoom="5.8820513"
     inkscape:cx="97.5"
     inkscape:cy="18.445946"
     inkscape:window-width="1920"
     inkscape:window-height="1027"
     inkscape:window-x="-8"
     inkscape:window-y="-8"
     inkscape:window-maximized="1"
     inkscape:current-layer="svg16" />
  <g
     fill="none"
     fill-rule="evenodd"
     id="g14"
     transform="matrix(1,0,0,0.38272092,0,11.625411)"
     style="fill:#ffffff;fill-opacity:1">
    <path
       d="m 56.07,2.21 v 33.88 h 1.5 V 2.21 Z"
       fill="#000000"
       id="path2"
       style="fill:#ffffff;fill-opacity:1" />
    <path
       d="m 169.09,11 c 0.13,0.358 0.38,0.659 0.71,0.85 0.424,0.226 0.9,0.333 1.38,0.31 a 3.74,3.74 0 0 0 1.33,-0.22 6.17,6.17 0 0 0 1.23,-0.65 4.69,4.69 0 0 0 0.94,-0.78 4.59,4.59 0 0 0 0.74,-1.46 6,6 0 0 0 0.32,-1.91 3.3,3.3 0 0 0 -0.12,-0.93 1.93,1.93 0 0 0 -0.39,-0.73 1.87,1.87 0 0 0 -0.79,-0.49 3.32,3.32 0 0 0 -1.15,-0.19 3.56,3.56 0 0 0 -1.42,0.29 5.47,5.47 0 0 0 -1.23,0.73 5.18,5.18 0 0 0 -0.78,0.71 4.33,4.33 0 0 0 -0.66,1.41 6.36,6.36 0 0 0 -0.3,1.89 3.43,3.43 0 0 0 0.2,1.18 z m 1.86,-3.47 a 4,4 0 0 1 0.74,-1.66 1.34,1.34 0 0 1 1,-0.44 1.18,1.18 0 0 1 0.93,0.4 c 0.27,0.373 0.399,0.83 0.36,1.29 a 8.62,8.62 0 0 1 -0.31,2.21 5.51,5.51 0 0 1 -0.47,1.24 1.84,1.84 0 0 1 -0.56,0.65 1.28,1.28 0 0 1 -0.72,0.2 1.22,1.22 0 0 1 -1,-0.39 2,2 0 0 1 -0.34,-1.29 8.71,8.71 0 0 1 0.33,-2.23 z m 6.73,-1.72 h 1 l -1.06,5.47 a 23,23 0 0 1 -0.67,3 1.06,1.06 0 0 1 -0.31,0.49 0.64,0.64 0 0 1 -0.39,0.14 0.6,0.6 0 0 1 -0.4,-0.15 1.39,1.39 0 0 1 -0.33,-0.5 h -0.23 c -0.05,0.26 -0.11,0.51 -0.18,0.73 -0.07,0.22 -0.17,0.51 -0.3,0.88 0.151,0.07 0.314,0.114 0.48,0.13 0.253,-0.006 0.5,-0.075 0.72,-0.2 a 4.94,4.94 0 0 0 1.4,-1.18 6.38,6.38 0 0 0 1.11,-1.85 c 0.4,-1.12 0.734,-2.261 1,-3.42 l 0.77,-3.54 h 1.87 a 4.7,4.7 0 0 1 0.23,-0.76 L 182.32,4.93 A 6.38,6.38 0 0 1 181.61,5 c -0.527,0.033 -0.86,0.033 -1,0 h -0.12 a 20.22,20.22 0 0 1 0.43,-1.95 2.67,2.67 0 0 1 0.2,-0.54 0.75,0.75 0 0 1 0.27,-0.28 0.67,0.67 0 0 1 0.35,-0.1 1,1 0 0 1 0.53,0.19 c 0.24,0.176 0.444,0.396 0.6,0.65 h 0.22 a 13.43,13.43 0 0 1 0.41,-1.87 1.68,1.68 0 0 0 -0.6,-0.12 1.8,1.8 0 0 0 -0.69,0.11 7.53,7.53 0 0 0 -1,0.67 14.67,14.67 0 0 0 -1.42,1.16 3.1,3.1 0 0 0 -0.61,0.75 3.86,3.86 0 0 0 -0.26,0.86 c 0,0.19 -0.07,0.31 -0.1,0.39 a 5.66,5.66 0 0 1 -0.79,0.28 c -0.32,0.093 -0.56,0.17 -0.72,0.23 l -0.07,0.37 h 0.44 z M 76.07,22.3 h -1.33 a 7.08,7.08 0 0 1 -0.17,1.7 0.47,0.47 0 0 1 -0.29,0.35 9.82,9.82 0 0 1 -2.47,0.18 c -0.453,0 -1.323,-0.037 -2.61,-0.11 v -2.08 c 0,-2.62 0.057,-4.43 0.17,-5.43 l 1.59,-0.07 h 1.43 a 13.64,13.64 0 0 1 2.32,0.17 4,4 0 0 1 1.26,0.35 0.29,0.29 0 0 1 0.14,0.15 c 0.063,0.262 0.094,0.53 0.09,0.8 0.06,0.813 0.09,1.34 0.09,1.58 h 1.23 c 0,-0.667 0.047,-1.443 0.14,-2.33 0.093,-0.887 0.19,-1.62 0.29,-2.2 L 77.81,15.15 A 26.18,26.18 0 0 0 74.91,15 L 67.63,15.14 62.29,15 v 1.3 c 0.6,0.023 1.197,0.08 1.79,0.17 0.153,0.024 0.299,0.078 0.43,0.16 a 0.49,0.49 0 0 1 0.14,0.25 7.61,7.61 0 0 1 0.17,1.65 c 0.093,2.667 0.14,4.08 0.14,4.24 V 29 c 0,0.533 -0.027,1.413 -0.08,2.64 -0.053,1.227 -0.093,1.957 -0.12,2.19 a 1.87,1.87 0 0 1 -0.21,0.79 0.47,0.47 0 0 1 -0.23,0.17 10.22,10.22 0 0 1 -2.03,0.21 v 1.25 c 1.86,-0.073 3.22,-0.11 4.08,-0.11 l 5.92,0.08 V 35 a 17.42,17.42 0 0 1 -2.38,-0.25 0.71,0.71 0 0 1 -0.38,-0.26 5.51,5.51 0 0 1 -0.24,-1.67 c -0.06,-0.96 -0.09,-2.627 -0.09,-5 v -1.71 h 1.21 c 1.18,-0.026 2.36,0.04 3.53,0.2 a 0.76,0.76 0 0 1 0.54,0.29 7.18,7.18 0 0 1 0.26,2.28 h 1.33 z m 8.42,13.78 c 0.667,0 1.827,0.02 3.48,0.06 l 3.56,0.08 c 1.293,0 2.247,-0.027 2.86,-0.08 A 5.15,5.15 0 0 0 95.29,36 c 0,-0.193 0.047,-0.767 0.14,-1.72 l 0.38,-3.06 v -0.5 h -1.23 c -0.193,0.973 -0.39,1.847 -0.59,2.62 a 1.39,1.39 0 0 1 -0.26,0.56 1.88,1.88 0 0 1 -0.74,0.2 26.43,26.43 0 0 1 -4,0.27 c -0.507,0 -1.457,-0.037 -2.85,-0.11 v -2.58 -4.29 -4.37 c 0,-1.693 0.023,-3.097 0.07,-4.21 a 12.27,12.27 0 0 1 0.08,-1.88 0.53,0.53 0 0 1 0.24,-0.3 6.89,6.89 0 0 1 2.09,-0.27 V 15 c -1.647,0.073 -3.387,0.11 -5.22,0.11 -1.647,0 -3.11,-0.037 -4.39,-0.11 v 1.33 a 6.79,6.79 0 0 1 2.32,0.3 0.47,0.47 0 0 1 0.23,0.27 c 0.15,1.08 0.214,2.17 0.19,3.26 v 5.91 c 0,2.173 -0.02,4.033 -0.06,5.58 -0.04,1.547 -0.087,2.447 -0.14,2.7 a 0.36,0.36 0 0 1 -0.07,0.17 1.44,1.44 0 0 1 -0.41,0.3 9.88,9.88 0 0 1 -1.1,0.59 v 0.78 c 2,-0.093 3.503,-0.14 4.51,-0.14 z m 13.06,-4.2 a 9.06,9.06 0 0 0 3.84,3.64 12.82,12.82 0 0 0 5.85,1.24 14.54,14.54 0 0 0 5.6,-1 9.93,9.93 0 0 0 3.19,-2.17 9.58,9.58 0 0 0 2.13,-3.23 14,14 0 0 0 1,-5.28 13,13 0 0 0 -0.37,-3.08 9.81,9.81 0 0 0 -1,-2.56 9.47,9.47 0 0 0 -4.89,-4 15.28,15.28 0 0 0 -5,-0.77 15.71,15.71 0 0 0 -5.11,0.8 A 9.85,9.85 0 0 0 97,21 a 12.76,12.76 0 0 0 -0.84,4.83 11.82,11.82 0 0 0 1.39,6 z m 4,-11.39 a 5.87,5.87 0 0 1 2.26,-3.07 6.61,6.61 0 0 1 3.76,-1 6.4,6.4 0 0 1 3.11,0.65 6.12,6.12 0 0 1 2,1.89 9.34,9.34 0 0 1 1.32,3 15.25,15.25 0 0 1 0.46,3.88 14.37,14.37 0 0 1 -0.85,5.26 6,6 0 0 1 -2.32,3.04 6.47,6.47 0 0 1 -3.41,0.91 6.56,6.56 0 0 1 -3.57,-1 6.82,6.82 0 0 1 -2.48,-3.27 15.21,15.21 0 0 1 -1,-5.85 13.66,13.66 0 0 1 0.7,-4.49 z m 19.74,-3.89 a 0.57,0.57 0 0 1 0.22,0.26 9.7,9.7 0 0 1 0.18,2.27 l 0.08,3.2 v 5.62 l -0.12,4.42 a 14.11,14.11 0 0 1 -0.15,1.79 1,1 0 0 1 -0.13,0.42 0.46,0.46 0 0 1 -0.26,0.15 11.4,11.4 0 0 1 -2,0.17 v 1.33 c 1.333,-0.073 2.79,-0.11 4.37,-0.11 1.767,0 3.51,0.037 5.23,0.11 v -1.34 a 15.11,15.11 0 0 1 -1.76,-0.09 1.18,1.18 0 0 1 -0.44,-0.16 0.62,0.62 0 0 1 -0.2,-0.22 3.58,3.58 0 0 1 -0.17,-1.1 c 0,-0.28 -0.03,-1.46 -0.09,-3.54 v -4.81 c 0,-0.96 0.03,-2.867 0.09,-5.72 0,-1.273 0.03,-2.093 0.09,-2.46 a 8.54,8.54 0 0 1 1.44,-0.12 7.7,7.7 0 0 1 2.27,0.23 3.52,3.52 0 0 1 1.65,1.29 c 0.466,0.682 0.7,1.495 0.67,2.32 a 4.93,4.93 0 0 1 -0.64,2.49 3.59,3.59 0 0 1 -1.56,1.54 6.24,6.24 0 0 1 -2.74,0.37 l -0.17,0.5 c 0.362,0.284 0.679,0.621 0.94,1 0.667,0.88 1.453,2.087 2.36,3.62 l 3.24,5.34 c 0.157,0.27 0.278,0.559 0.36,0.86 0.8,-0.04 1.603,-0.06 2.41,-0.06 0.667,0 1.79,0.02 3.37,0.06 v -1.34 a 3,3 0 0 1 -1,-0.12 1.6,1.6 0 0 1 -0.5,-0.37 c -0.173,-0.18 -0.637,-0.77 -1.39,-1.77 l -1,-1.5 -2.35,-3.5 -0.17,-0.29 c -0.06,-0.1 -0.24,-0.38 -0.57,-0.86 -0.33,-0.48 -0.61,-0.93 -0.86,-1.38 a 7.56,7.56 0 0 0 3.5,-2.38 5.39,5.39 0 0 0 1.14,-3.33 4.15,4.15 0 0 0 -0.83,-2.62 3.88,3.88 0 0 0 -2,-1.42 13.78,13.78 0 0 0 -3.56,-0.34 c -0.82,0 -1.853,0.03 -3.1,0.09 -0.76,0.047 -1.667,0.07 -2.72,0.07 h -2.88 l -2.42,-0.07 v 1.2 a 8.55,8.55 0 0 1 2.22,0.3 z m 24.15,-1.46 c -1.647,0 -3.107,-0.037 -4.38,-0.11 v 1.33 a 16,16 0 0 1 1.92,0.13 0.75,0.75 0 0 1 0.36,0.17 0.66,0.66 0 0 1 0.15,0.3 c 0.11,0.799 0.17,1.604 0.18,2.41 v 10.21 c 0,1.033 -0.04,2.153 -0.12,3.36 -0.05,0.83 -0.09,1.3 -0.12,1.42 a 0.49,0.49 0 0 1 -0.14,0.24 0.9,0.9 0 0 1 -0.43,0.17 c -0.16,0 -0.767,0.037 -1.82,0.11 v 1.33 a 76.478,76.478 0 0 1 4.35,-0.11 c 1.873,0 3.63,0.037 5.27,0.11 v -1.32 a 14.41,14.41 0 0 1 -1.81,-0.1 1.15,1.15 0 0 1 -0.46,-0.18 0.61,0.61 0 0 1 -0.21,-0.33 8.27,8.27 0 0 1 -0.15,-2 v -8.9 c 0,-0.193 0.02,-1.527 0.06,-4 v -1.49 a 3.57,3.57 0 0 1 0.15,-1 0.5,0.5 0 0 1 0.17,-0.25 1.06,1.06 0 0 1 0.41,-0.17 14.82,14.82 0 0 1 1.83,-0.11 V 15 c -1.647,0.073 -3.393,0.11 -5.24,0.11 z m 11.71,21 4.49,0.11 a 17.7,17.7 0 0 0 5.22,-0.67 11.79,11.79 0 0 0 4,-2.2 10.73,10.73 0 0 0 2.91,-3.8 12.09,12.09 0 0 0 1.06,-5.16 11.87,11.87 0 0 0 -0.71,-4.18 7.21,7.21 0 0 0 -1.25,-2.12 8,8 0 0 0 -2,-1.7 8.78,8.78 0 0 0 -2.81,-1 22.57,22.57 0 0 0 -4.29,-0.33 c -0.78,0 -1.813,0.017 -3.1,0.05 -1.787,0.06 -3.003,0.09 -3.65,0.09 L 151.57,15 v 1.22 c 1.093,0.14 1.727,0.23 1.9,0.27 a 0.77,0.77 0 0 1 0.38,0.18 0.53,0.53 0 0 1 0.12,0.21 c 0.145,0.903 0.212,1.816 0.2,2.73 0.053,2.573 0.08,4.527 0.08,5.86 V 28 c 0,3.04 -0.057,5.237 -0.17,6.59 -0.32,0.243 -0.654,0.466 -1,0.67 l -0.42,0.24 v 0.73 l 4.58,-0.11 z m 1.31,-7.71 v -3.5 c 0,-3.96 0.053,-6.653 0.16,-8.08 a 18.17,18.17 0 0 1 2.57,-0.2 14.71,14.71 0 0 1 4.63,0.54 5.69,5.69 0 0 1 2.53,1.76 7.46,7.46 0 0 1 1.44,2.82 12.69,12.69 0 0 1 0.44,3.34 13.59,13.59 0 0 1 -0.44,3.53 9.34,9.34 0 0 1 -1.23,2.82 6.77,6.77 0 0 1 -1.66,1.79 6.49,6.49 0 0 1 -2,0.92 13.63,13.63 0 0 1 -3.57,0.42 16.32,16.32 0 0 1 -2.69,-0.24 c -0.107,-0.96 -0.16,-2.94 -0.16,-5.94 z m 17.17,7.71 3.49,0.11 V 35 a 6.49,6.49 0 0 1 -2.16,-0.27 0.56,0.56 0 0 1 -0.24,-0.51 c 0.148,-0.89 0.4,-1.759 0.75,-2.59 l 0.66,-1.81 h 7.81 l 1.35,3.28 c 0.185,0.391 0.303,0.81 0.35,1.24 a 0.45,0.45 0 0 1 -0.23,0.43 8.8,8.8 0 0 1 -2.12,0.23 v 1.25 l 5.31,-0.11 4.21,0.11 V 35 l -0.67,-0.07 a 4.7,4.7 0 0 1 -0.88,-0.11 0.9,0.9 0 0 1 -0.31,-0.18 1.46,1.46 0 0 1 -0.29,-0.39 l -0.61,-1.39 -0.94,-2.07 -6.72,-15.85 h -2.16 l -1.33,3.44 -3.95,9.75 a 548.915,548.915 0 0 1 -1.51,3.71 257.941,257.941 0 0 1 -1,2.31 1.74,1.74 0 0 1 -0.34,0.45 1.08,1.08 0 0 1 -0.4,0.21 c -0.483,0.085 -0.97,0.138 -1.46,0.16 v 1.25 l 3.47,-0.11 z m 6.36,-15.94 3.24,7.8 h -6.35 L 182,20.17 Z M 63.08,2.81 A 0.51,0.51 0 0 1 63.29,3 c 0.05,0.131 0.077,0.27 0.08,0.41 v 5.66 a 2.32,2.32 0 0 0 0.84,1.48 2.9,2.9 0 0 0 1,0.51 6.06,6.06 0 0 0 1.8,0.26 5.37,5.37 0 0 0 1.45,-0.18 3.22,3.22 0 0 0 1.09,-0.53 2.71,2.71 0 0 0 0.74,-0.8 2.81,2.81 0 0 0 0.33,-1 8.8,8.8 0 0 0 0.08,-1.18 V 6.1 4.3 A 9.37,9.37 0 0 1 70.81,3 0.36,0.36 0 0 1 70.93,2.81 1.74,1.74 0 0 1 71.67,2.71 V 2.2 L 70.29,2.24 H 68.74 V 2.72 A 2.57,2.57 0 0 1 69.65,2.85 0.3,0.3 0 0 1 69.8,3 c 0.073,0.328 0.103,0.664 0.09,1 v 3.3 a 5,5 0 0 1 -0.22,1.84 1.75,1.75 0 0 1 -0.75,0.78 2.81,2.81 0 0 1 -1.41,0.3 3.08,3.08 0 0 1 -1.22,-0.22 1.69,1.69 0 0 1 -0.74,-0.59 2.09,2.09 0 0 1 -0.3,-1 V 4.8 A 10.45,10.45 0 0 1 65.29,3.06 0.31,0.31 0 0 1 65.42,2.84 1.93,1.93 0 0 1 66.29,2.72 V 2.2 h -1.12 l -0.88,0.04 -2,-0.04 v 0.52 l 0.83,0.09 z m 11.29,8.27 h 3.05 V 10.54 H 77.29 A 5.58,5.58 0 0 1 76.69,10.49 0.44,0.44 0 0 1 76.48,10.42 0.26,0.26 0 0 1 76.39,10.3 5,5 0 0 1 76.31,9.4 V 4.2 c 2.507,3.06 4.443,5.353 5.81,6.88 l 1.09,0.16 0.08,-0.05 C 83.23,10.59 83.2,8.883 83.2,6.07 V 4.4 a 7.06,7.06 0 0 1 0.09,-1.46 0.16,0.16 0 0 1 0.07,-0.1 c 0.3,-0.094 0.616,-0.132 0.93,-0.11 V 2.2 h -3 v 0.53 c 0.339,-0.03 0.68,0.015 1,0.13 a 0.45,0.45 0 0 1 0.11,0.31 c 0.053,0.4 0.08,1.733 0.08,4 V 8.64 C 81.893,8.033 81.153,7.197 80.26,6.13 A 110.922,110.922 0 0 1 77.06,2.2 h -2.69 v 0.53 c 0.271,0.01 0.542,0.036 0.81,0.08 a 0.41,0.41 0 0 1 0.2,0.1 0.47,0.47 0 0 1 0.09,0.21 c 0.016,0.2 0.016,0.4 0,0.6 v 5.22 c -0.033,0.62 -0.063,1.01 -0.09,1.17 a 0.56,0.56 0 0 1 -0.08,0.24 0.28,0.28 0 0 1 -0.12,0.08 7,7 0 0 1 -0.86,0.07 v 0.54 z M 89,2.24 h -1.83 v 0.52 c 0.267,0 0.535,0.017 0.8,0.05 a 0.31,0.31 0 0 1 0.15,0.07 0.27,0.27 0 0 1 0.06,0.13 c 0.057,0.327 0.094,0.658 0.11,0.99 v 4.3 c 0,0.433 -0.02,0.903 -0.06,1.41 v 0.6 a 0.2,0.2 0 0 1 -0.06,0.1 0.38,0.38 0 0 1 -0.18,0.07 h -0.76 v 0.56 h 4.03 v -0.52 a 6,6 0 0 1 -0.76,0 A 0.48,0.48 0 0 1 90.29,10.4 0.26,0.26 0 0 1 90.2,10.26 3.45,3.45 0 0 1 90.14,9.41 V 5.7 4.02 3.4 a 1.51,1.51 0 0 1 0.05,-0.4 0.21,0.21 0 0 1 0.1,-0.12 0.44,0.44 0 0 1 0.17,-0.07 6.25,6.25 0 0 1 0.77,0 V 2.2 h -2.2 z m 10.14,8.88 c 0.26,-0.72 0.753,-1.953 1.48,-3.7 l 0.86,-2 0.45,-1.05 a 6,6 0 0 1 0.72,-1.44 2.1,2.1 0 0 1 0.72,-0.13 V 2.2 h -2.98 v 0.56 h 0.93 a 0.22,0.22 0 0 1 0.09,0.08 0.31,0.31 0 0 1 0,0.16 0.8,0.8 0 0 1 0,0.15 c -0.04,0.173 -0.157,0.507 -0.35,1 a 73.78,73.78 0 0 1 -0.45,1.2 L 99.2,8.84 97.6,5 V 4.88 L 97.29,4.27 A 5.69,5.69 0 0 1 96.87,3.06 0.22,0.22 0 0 1 96.92,2.9 0.36,0.36 0 0 1 97.11,2.81 3.93,3.93 0 0 1 97.88,2.75 V 2.2 h -4.13 v 0.56 a 2.06,2.06 0 0 1 0.79,0.11 c 0.163,0.157 0.289,0.349 0.37,0.56 0.16,0.32 0.593,1.32 1.3,3 l 0.9,2.15 1,2.53 h 1 z M 108.29,11 h 3.08 c 0.383,0.02 0.767,0.02 1.15,0 l 0.08,-0.08 a 19.6,19.6 0 0 1 0.14,-2.07 h -0.45 a 6.68,6.68 0 0 1 -0.24,1.15 0.23,0.23 0 0 1 -0.08,0.11 2.05,2.05 0 0 1 -0.71,0.13 h -2.47 V 6.85 a 9.13,9.13 0 0 1 1,0 7.5,7.5 0 0 1 1.13,0.07 c 0.11,0.01 0.208,0.07 0.27,0.16 0.095,0.293 0.129,0.603 0.1,0.91 h 0.51 V 5.21 h -0.51 a 3.28,3.28 0 0 1 -0.09,0.8 0.24,0.24 0 0 1 -0.09,0.13 1.16,1.16 0 0 1 -0.4,0 h -1.9 V 4.82 a 16.15,16.15 0 0 1 0.09,-1.83 h 1.15 a 11,11 0 0 1 1.23,0.07 1.5,1.5 0 0 1 0.51,0.1 0.23,0.23 0 0 1 0.08,0.13 c 0.044,0.305 0.064,0.612 0.06,0.92 h 0.49 l 0.06,-0.92 0.12,-0.92 V 2.29 L 112.29,2.2 h -6.46 v 0.54 c 0.31,-0.003 0.62,0.034 0.92,0.11 a 0.2,0.2 0 0 1 0.1,0.1 c 0.07,0.288 0.1,0.584 0.09,0.88 v 4.09 c 0,0.333 -0.017,0.863 -0.05,1.59 0,0.4 0,0.69 -0.06,0.86 -0.192,0.147 -0.4,0.27 -0.62,0.37 v 0.34 z m 8.35,-8.18 a 0.23,0.23 0 0 1 0.09,0.11 c 0.068,0.329 0.095,0.665 0.08,1 V 7.6 l -0.05,1.85 a 5.77,5.77 0 0 1 -0.06,0.75 0.41,0.41 0 0 1 -0.05,0.18 0.2,0.2 0 0 1 -0.11,0.06 4.9,4.9 0 0 1 -0.85,0.07 v 0.56 h 4.02 v -0.55 a 6.36,6.36 0 0 1 -0.74,0 0.49,0.49 0 0 1 -0.18,-0.07 0.26,0.26 0 0 1 -0.08,-0.09 1.54,1.54 0 0 1 -0.07,-0.46 v -1.49 -2 -2.4 -1 a 3.59,3.59 0 0 1 0.6,-0.05 3.21,3.21 0 0 1 1,0.1 c 0.28,0.106 0.52,0.294 0.69,0.54 0.2,0.294 0.299,0.645 0.28,1 a 2.06,2.06 0 0 1 -0.27,1 1.49,1.49 0 0 1 -0.65,0.65 2.61,2.61 0 0 1 -1.15,0.16 l -0.07,0.21 c 0.15,0.119 0.282,0.26 0.39,0.42 0.273,0.367 0.607,0.873 1,1.52 l 1.36,2.24 c 0.065,0.113 0.115,0.234 0.15,0.36 h 2.42 v -0.64 a 1.25,1.25 0 0 1 -0.4,-0.05 0.65,0.65 0 0 1 -0.21,-0.16 c -0.073,-0.073 -0.267,-0.32 -0.58,-0.74 l -0.43,-0.63 -1,-1.47 L 121.7,7.35 121.5,7 c -0.13,-0.2 -0.26,-0.39 -0.36,-0.58 a 3.16,3.16 0 0 0 1.46,-1 c 0.313,-0.4 0.482,-0.893 0.48,-1.4 a 1.74,1.74 0 0 0 -0.35,-1.1 1.62,1.62 0 0 0 -0.84,-0.59 5.75,5.75 0 0 0 -1.49,-0.14 h -4.65 v 0.53 c 0.314,0.002 0.627,0.046 0.93,0.13 z m 16.39,0.63 a 7.37,7.37 0 0 1 0.13,-0.81 l -0.05,-0.15 a 4.32,4.32 0 0 0 -1.1,-0.35 7,7 0 0 0 -1.3,-0.12 5.58,5.58 0 0 0 -1.26,0.14 3.29,3.29 0 0 0 -1.1,0.47 2.36,2.36 0 0 0 -0.79,0.93 2.9,2.9 0 0 0 -0.3,1.31 2.68,2.68 0 0 0 0.17,0.95 2,2 0 0 0 0.5,0.75 c 0.252,0.226 0.554,0.39 0.88,0.48 0.24,0.073 0.743,0.19 1.51,0.35 a 4.93,4.93 0 0 1 1.12,0.36 c 0.2,0.102 0.364,0.262 0.47,0.46 0.106,0.214 0.157,0.451 0.15,0.69 a 1.7,1.7 0 0 1 -0.21,0.85 1.42,1.42 0 0 1 -0.69,0.59 2.59,2.59 0 0 1 -1.08,0.21 2.76,2.76 0 0 1 -1.28,-0.3 2,2 0 0 1 -0.83,-0.69 7.94,7.94 0 0 1 -0.07,-1.14 h -0.51 a 9.27,9.27 0 0 1 -0.2,2.2 6.63,6.63 0 0 0 1.34,0.5 6,6 0 0 0 1.39,0.15 4.92,4.92 0 0 0 1.83,-0.3 c 0.34,-0.138 0.653,-0.33 0.93,-0.57 a 3.05,3.05 0 0 0 0.71,-0.85 c 0.233,-0.44 0.35,-0.932 0.34,-1.43 A 2.67,2.67 0 0 0 133.61,7.3 2,2 0 0 0 133.3,6.68 1.73,1.73 0 0 0 132.8,6.25 3.26,3.26 0 0 0 131.97,5.93 l -0.85,-0.16 -1,-0.19 a 2.81,2.81 0 0 1 -0.73,-0.28 1,1 0 0 1 -0.38,-0.41 1.54,1.54 0 0 1 -0.14,-0.68 1.34,1.34 0 0 1 0.47,-1 1.9,1.9 0 0 1 1.34,-0.44 2.66,2.66 0 0 1 1.09,0.22 c 0.266,0.1 0.5,0.27 0.68,0.49 0.04,0.332 0.06,0.666 0.06,1 h 0.53 c 0,-0.43 0,-0.78 0.06,-1 z m 5.64,-1.23 h -1.83 v 0.54 a 6.7,6.7 0 0 1 0.8,0.05 0.31,0.31 0 0 1 0.15,0.07 0.27,0.27 0 0 1 0.06,0.13 8,8 0 0 1 0.08,1 V 8.3 c 0,0.433 -0.017,0.903 -0.05,1.41 v 0.6 a 0.2,0.2 0 0 1 -0.06,0.1 0.38,0.38 0 0 1 -0.18,0.07 h -0.76 v 0.56 h 4.03 v -0.52 a 6,6 0 0 1 -0.76,0 0.48,0.48 0 0 1 -0.19,-0.08 0.25,0.25 0 0 1 -0.09,-0.14 3.44,3.44 0 0 1 -0.06,-0.85 V 5.7 4.02 3.4 a 1.52,1.52 0 0 1 0.08,-0.4 0.22,0.22 0 0 1 0.07,-0.1 0.45,0.45 0 0 1 0.17,-0.07 6.23,6.23 0 0 1 0.76,0 V 2.2 h -2.2 z m 8.84,8.78 c 0.567,0 1.26,0.017 2.08,0.05 v -0.49 a 3,3 0 0 1 -0.91,-0.11 0.38,0.38 0 0 1 -0.19,-0.24 10.43,10.43 0 0 1 -0.07,-1.65 V 4.76 3.02 h 0.91 c 0.487,0 0.903,0.017 1.25,0.05 a 0.43,0.43 0 0 1 0.2,0 0.6,0.6 0 0 1 0.08,0.27 c 0.047,0.311 0.074,0.625 0.08,0.94 h 0.52 V 2.89 a 6.52,6.52 0 0 1 0.07,-0.68 l -0.06,-0.06 h -8.02 l -0.06,0.06 c 0,0.213 0.02,0.413 0.06,0.6 0.04,0.187 0.04,0.677 0,1.47 h 0.52 c 0.007,-0.335 0.04,-0.67 0.1,-1 a 0.42,0.42 0 0 1 0.08,-0.22 0.55,0.55 0 0 1 0.24,-0.05 h 2.12 v 5.54 a 10.3,10.3 0 0 1 -0.07,1.64 0.39,0.39 0 0 1 -0.19,0.25 3.12,3.12 0 0 1 -0.91,0.1 v 0.52 c 0.78,-0.033 1.473,-0.05 2.08,-0.05 z m 10.4,-6.38 A 15.08,15.08 0 0 0 156.99,3.04 4,4 0 0 0 156.5,2.41 2.89,2.89 0 0 0 155.94,2 l -0.7,0.17 -1.35,0.27 V 3 a 2.13,2.13 0 0 1 0.56,0 c 0.168,0.116 0.319,0.254 0.45,0.41 a 10.2,10.2 0 0 1 1,1.38 c 0.453,0.707 0.88,1.423 1.28,2.15 a 1.8,1.8 0 0 1 0.24,0.6 v 2.44 a 0.94,0.94 0 0 1 -0.07,0.38 0.3,0.3 0 0 1 -0.17,0.1 6.83,6.83 0 0 1 -0.85,0.06 v 0.56 h 4.12 v -0.56 a 5.21,5.21 0 0 1 -0.84,-0.05 0.35,0.35 0 0 1 -0.19,-0.11 1.2,1.2 0 0 1 -0.1,-0.44 c -0.02,-0.39 -0.02,-0.78 0,-1.17 V 7.66 a 2.59,2.59 0 0 1 0,-0.48 c 0.04,-0.167 0.1,-0.328 0.18,-0.48 0.14,-0.267 0.507,-0.867 1.1,-1.8 0.593,-0.933 1.157,-1.74 1.69,-2.42 V 2.2 h -1 c -0.06,0.12 -0.21,0.39 -0.44,0.79 l -1.2,2.12 -0.8,1.29 c -0.1,-0.22 -0.397,-0.807 -0.89,-1.76 z"
       fill="#004b93"
       fill-rule="nonzero"
       id="path4"
       style="fill:#ffffff;fill-opacity:1" />
    <g
       fill="#000000"
       id="g12"
       style="fill:#ffffff;fill-opacity:1">
      <path
         d="m 36.21,30.38 v -8.67 h 7.99 v -5.72 h -7.99 v -8.1 h 8.77 v 3.14 h 5.79 V 2.22 H 27.59 v 5.67 h 2.18 V 30.38 H 27.6 V 36.1 H 38.3 V 30.38 Z M 24.58,23.29 V 7.89 h 2.14 V 2.22 H 16.01 v 5.67 h 2.09 v 13.49 c 0,5.66 -0.65,8.37 -4.71,8.37 C 9.33,29.75 8.67,27 8.67,21.38 V 7.89 h 2.07 V 2.22 H 0 v 5.67 h 2.13 v 15.4 c 0,3.37 0,6.12 1.59,8.6 1.77,2.8 5,4.59 9.66,4.59 8.26,0 11.2,-4.31 11.2,-13.19 z M 56.07,2.21 v 33.88 h 1.5 V 2.21 Z"
         id="path6"
         style="fill:#ffffff;fill-opacity:1" />
      <path
         d="m 169.09,11 c 0.13,0.358 0.38,0.659 0.71,0.85 0.424,0.226 0.9,0.333 1.38,0.31 a 3.74,3.74 0 0 0 1.33,-0.22 6.17,6.17 0 0 0 1.23,-0.65 4.69,4.69 0 0 0 0.94,-0.78 4.59,4.59 0 0 0 0.74,-1.46 6,6 0 0 0 0.32,-1.91 3.3,3.3 0 0 0 -0.12,-0.93 1.93,1.93 0 0 0 -0.39,-0.73 1.87,1.87 0 0 0 -0.79,-0.49 3.32,3.32 0 0 0 -1.15,-0.19 3.56,3.56 0 0 0 -1.42,0.29 5.47,5.47 0 0 0 -1.23,0.73 5.18,5.18 0 0 0 -0.78,0.71 4.33,4.33 0 0 0 -0.66,1.41 6.36,6.36 0 0 0 -0.3,1.89 3.43,3.43 0 0 0 0.2,1.18 z m 1.86,-3.47 a 4,4 0 0 1 0.74,-1.66 1.34,1.34 0 0 1 1,-0.44 1.18,1.18 0 0 1 0.93,0.4 c 0.27,0.373 0.399,0.83 0.36,1.29 a 8.62,8.62 0 0 1 -0.31,2.21 5.51,5.51 0 0 1 -0.47,1.24 1.84,1.84 0 0 1 -0.56,0.65 1.28,1.28 0 0 1 -0.72,0.2 1.22,1.22 0 0 1 -1,-0.39 2,2 0 0 1 -0.34,-1.29 8.71,8.71 0 0 1 0.33,-2.23 z m 6.73,-1.72 h 1 l -1.06,5.47 a 23,23 0 0 1 -0.67,3 1.06,1.06 0 0 1 -0.31,0.49 0.64,0.64 0 0 1 -0.39,0.14 0.6,0.6 0 0 1 -0.4,-0.15 1.39,1.39 0 0 1 -0.33,-0.5 h -0.23 c -0.05,0.26 -0.11,0.51 -0.18,0.73 -0.07,0.22 -0.17,0.51 -0.3,0.88 0.151,0.07 0.314,0.114 0.48,0.13 0.253,-0.006 0.5,-0.075 0.72,-0.2 a 4.94,4.94 0 0 0 1.4,-1.18 6.38,6.38 0 0 0 1.11,-1.85 c 0.4,-1.12 0.734,-2.261 1,-3.42 l 0.77,-3.54 h 1.87 a 4.7,4.7 0 0 1 0.23,-0.76 L 182.32,4.93 A 6.38,6.38 0 0 1 181.61,5 c -0.527,0.033 -0.86,0.033 -1,0 h -0.12 a 20.22,20.22 0 0 1 0.43,-1.95 2.67,2.67 0 0 1 0.2,-0.54 0.75,0.75 0 0 1 0.27,-0.28 0.67,0.67 0 0 1 0.35,-0.1 1,1 0 0 1 0.53,0.19 c 0.24,0.176 0.444,0.396 0.6,0.65 h 0.22 a 13.43,13.43 0 0 1 0.41,-1.87 1.68,1.68 0 0 0 -0.6,-0.12 1.8,1.8 0 0 0 -0.69,0.11 7.53,7.53 0 0 0 -1,0.67 14.67,14.67 0 0 0 -1.42,1.16 3.1,3.1 0 0 0 -0.61,0.75 3.86,3.86 0 0 0 -0.26,0.86 c 0,0.19 -0.07,0.31 -0.1,0.39 a 5.66,5.66 0 0 1 -0.79,0.28 c -0.32,0.093 -0.56,0.17 -0.72,0.23 l -0.07,0.37 h 0.44 z M 76.07,22.3 h -1.33 a 7.08,7.08 0 0 1 -0.17,1.7 0.47,0.47 0 0 1 -0.29,0.35 9.82,9.82 0 0 1 -2.47,0.18 c -0.453,0 -1.323,-0.037 -2.61,-0.11 v -2.08 c 0,-2.62 0.057,-4.43 0.17,-5.43 l 1.59,-0.07 h 1.43 a 13.64,13.64 0 0 1 2.32,0.17 4,4 0 0 1 1.26,0.35 0.29,0.29 0 0 1 0.14,0.15 c 0.063,0.262 0.094,0.53 0.09,0.8 0.06,0.813 0.09,1.34 0.09,1.58 h 1.23 c 0,-0.667 0.047,-1.443 0.14,-2.33 0.093,-0.887 0.19,-1.62 0.29,-2.2 L 77.81,15.15 A 26.18,26.18 0 0 0 74.91,15 L 67.63,15.14 62.29,15 v 1.3 c 0.6,0.023 1.197,0.08 1.79,0.17 0.153,0.024 0.299,0.078 0.43,0.16 a 0.49,0.49 0 0 1 0.14,0.25 7.61,7.61 0 0 1 0.17,1.65 c 0.093,2.667 0.14,4.08 0.14,4.24 V 29 c 0,0.533 -0.027,1.413 -0.08,2.64 -0.053,1.227 -0.093,1.957 -0.12,2.19 a 1.87,1.87 0 0 1 -0.21,0.79 0.47,0.47 0 0 1 -0.23,0.17 10.22,10.22 0 0 1 -2.03,0.21 v 1.25 c 1.86,-0.073 3.22,-0.11 4.08,-0.11 l 5.92,0.08 V 35 a 17.42,17.42 0 0 1 -2.38,-0.25 0.71,0.71 0 0 1 -0.38,-0.26 5.51,5.51 0 0 1 -0.24,-1.67 c -0.06,-0.96 -0.09,-2.627 -0.09,-5 v -1.71 h 1.21 c 1.18,-0.026 2.36,0.04 3.53,0.2 a 0.76,0.76 0 0 1 0.54,0.29 7.18,7.18 0 0 1 0.26,2.28 h 1.33 z m 8.42,13.78 c 0.667,0 1.827,0.02 3.48,0.06 l 3.56,0.08 c 1.293,0 2.247,-0.027 2.86,-0.08 A 5.15,5.15 0 0 0 95.29,36 c 0,-0.193 0.047,-0.767 0.14,-1.72 l 0.38,-3.06 v -0.5 h -1.23 c -0.193,0.973 -0.39,1.847 -0.59,2.62 a 1.39,1.39 0 0 1 -0.26,0.56 1.88,1.88 0 0 1 -0.74,0.2 26.43,26.43 0 0 1 -4,0.27 c -0.507,0 -1.457,-0.037 -2.85,-0.11 v -2.58 -4.29 -4.37 c 0,-1.693 0.023,-3.097 0.07,-4.21 a 12.27,12.27 0 0 1 0.08,-1.88 0.53,0.53 0 0 1 0.24,-0.3 6.89,6.89 0 0 1 2.09,-0.27 V 15 c -1.647,0.073 -3.387,0.11 -5.22,0.11 -1.647,0 -3.11,-0.037 -4.39,-0.11 v 1.33 a 6.79,6.79 0 0 1 2.32,0.3 0.47,0.47 0 0 1 0.23,0.27 c 0.15,1.08 0.214,2.17 0.19,3.26 v 5.91 c 0,2.173 -0.02,4.033 -0.06,5.58 -0.04,1.547 -0.087,2.447 -0.14,2.7 a 0.36,0.36 0 0 1 -0.07,0.17 1.44,1.44 0 0 1 -0.41,0.3 9.88,9.88 0 0 1 -1.1,0.59 v 0.78 c 2,-0.093 3.503,-0.14 4.51,-0.14 z m 13.06,-4.2 a 9.06,9.06 0 0 0 3.84,3.64 12.82,12.82 0 0 0 5.85,1.24 14.54,14.54 0 0 0 5.6,-1 9.93,9.93 0 0 0 3.19,-2.17 9.58,9.58 0 0 0 2.13,-3.23 14,14 0 0 0 1,-5.28 13,13 0 0 0 -0.37,-3.08 9.81,9.81 0 0 0 -1,-2.56 9.47,9.47 0 0 0 -4.89,-4 15.28,15.28 0 0 0 -5,-0.77 15.71,15.71 0 0 0 -5.11,0.8 A 9.85,9.85 0 0 0 97,21 a 12.76,12.76 0 0 0 -0.84,4.83 11.82,11.82 0 0 0 1.39,6 z m 4,-11.39 a 5.87,5.87 0 0 1 2.26,-3.07 6.61,6.61 0 0 1 3.76,-1 6.4,6.4 0 0 1 3.11,0.65 6.12,6.12 0 0 1 2,1.89 9.34,9.34 0 0 1 1.32,3 15.25,15.25 0 0 1 0.46,3.88 14.37,14.37 0 0 1 -0.85,5.26 6,6 0 0 1 -2.32,3.04 6.47,6.47 0 0 1 -3.41,0.91 6.56,6.56 0 0 1 -3.57,-1 6.82,6.82 0 0 1 -2.48,-3.27 15.21,15.21 0 0 1 -1,-5.85 13.66,13.66 0 0 1 0.7,-4.49 z m 19.74,-3.89 a 0.57,0.57 0 0 1 0.22,0.26 9.7,9.7 0 0 1 0.18,2.27 l 0.08,3.2 v 5.62 l -0.12,4.42 a 14.11,14.11 0 0 1 -0.15,1.79 1,1 0 0 1 -0.13,0.42 0.46,0.46 0 0 1 -0.26,0.15 11.4,11.4 0 0 1 -2,0.17 v 1.33 c 1.333,-0.073 2.79,-0.11 4.37,-0.11 1.767,0 3.51,0.037 5.23,0.11 v -1.34 a 15.11,15.11 0 0 1 -1.76,-0.09 1.18,1.18 0 0 1 -0.44,-0.16 0.62,0.62 0 0 1 -0.2,-0.22 3.58,3.58 0 0 1 -0.17,-1.1 c 0,-0.28 -0.03,-1.46 -0.09,-3.54 v -4.81 c 0,-0.96 0.03,-2.867 0.09,-5.72 0,-1.273 0.03,-2.093 0.09,-2.46 a 8.54,8.54 0 0 1 1.44,-0.12 7.7,7.7 0 0 1 2.27,0.23 3.52,3.52 0 0 1 1.65,1.29 c 0.466,0.682 0.7,1.495 0.67,2.32 a 4.93,4.93 0 0 1 -0.64,2.49 3.59,3.59 0 0 1 -1.56,1.54 6.24,6.24 0 0 1 -2.74,0.37 l -0.17,0.5 c 0.362,0.284 0.679,0.621 0.94,1 0.667,0.88 1.453,2.087 2.36,3.62 l 3.24,5.34 c 0.157,0.27 0.278,0.559 0.36,0.86 0.8,-0.04 1.603,-0.06 2.41,-0.06 0.667,0 1.79,0.02 3.37,0.06 v -1.34 a 3,3 0 0 1 -1,-0.12 1.6,1.6 0 0 1 -0.5,-0.37 c -0.173,-0.18 -0.637,-0.77 -1.39,-1.77 l -1,-1.5 -2.35,-3.5 -0.17,-0.29 c -0.06,-0.1 -0.24,-0.38 -0.57,-0.86 -0.33,-0.48 -0.61,-0.93 -0.86,-1.38 a 7.56,7.56 0 0 0 3.5,-2.38 5.39,5.39 0 0 0 1.14,-3.33 4.15,4.15 0 0 0 -0.83,-2.62 3.88,3.88 0 0 0 -2,-1.42 13.78,13.78 0 0 0 -3.56,-0.34 c -0.82,0 -1.853,0.03 -3.1,0.09 -0.76,0.047 -1.667,0.07 -2.72,0.07 h -2.88 l -2.42,-0.07 v 1.2 a 8.55,8.55 0 0 1 2.22,0.3 z m 24.15,-1.46 c -1.647,0 -3.107,-0.037 -4.38,-0.11 v 1.33 a 16,16 0 0 1 1.92,0.13 0.75,0.75 0 0 1 0.36,0.17 0.66,0.66 0 0 1 0.15,0.3 c 0.11,0.799 0.17,1.604 0.18,2.41 v 10.21 c 0,1.033 -0.04,2.153 -0.12,3.36 -0.05,0.83 -0.09,1.3 -0.12,1.42 a 0.49,0.49 0 0 1 -0.14,0.24 0.9,0.9 0 0 1 -0.43,0.17 c -0.16,0 -0.767,0.037 -1.82,0.11 v 1.33 a 76.478,76.478 0 0 1 4.35,-0.11 c 1.873,0 3.63,0.037 5.27,0.11 v -1.32 a 14.41,14.41 0 0 1 -1.81,-0.1 1.15,1.15 0 0 1 -0.46,-0.18 0.61,0.61 0 0 1 -0.21,-0.33 8.27,8.27 0 0 1 -0.15,-2 v -8.9 c 0,-0.193 0.02,-1.527 0.06,-4 v -1.49 a 3.57,3.57 0 0 1 0.15,-1 0.5,0.5 0 0 1 0.17,-0.25 1.06,1.06 0 0 1 0.41,-0.17 14.82,14.82 0 0 1 1.83,-0.11 V 15 c -1.647,0.073 -3.393,0.11 -5.24,0.11 z m 11.71,21 4.49,0.11 a 17.7,17.7 0 0 0 5.22,-0.67 11.79,11.79 0 0 0 4,-2.2 10.73,10.73 0 0 0 2.91,-3.8 12.09,12.09 0 0 0 1.06,-5.16 11.87,11.87 0 0 0 -0.71,-4.18 7.21,7.21 0 0 0 -1.25,-2.12 8,8 0 0 0 -2,-1.7 8.78,8.78 0 0 0 -2.81,-1 22.57,22.57 0 0 0 -4.29,-0.33 c -0.78,0 -1.813,0.017 -3.1,0.05 -1.787,0.06 -3.003,0.09 -3.65,0.09 L 151.57,15 v 1.22 c 1.093,0.14 1.727,0.23 1.9,0.27 a 0.77,0.77 0 0 1 0.38,0.18 0.53,0.53 0 0 1 0.12,0.21 c 0.145,0.903 0.212,1.816 0.2,2.73 0.053,2.573 0.08,4.527 0.08,5.86 V 28 c 0,3.04 -0.057,5.237 -0.17,6.59 -0.32,0.243 -0.654,0.466 -1,0.67 l -0.42,0.24 v 0.73 l 4.58,-0.11 z m 1.31,-7.71 v -3.5 c 0,-3.96 0.053,-6.653 0.16,-8.08 a 18.17,18.17 0 0 1 2.57,-0.2 14.71,14.71 0 0 1 4.63,0.54 5.69,5.69 0 0 1 2.53,1.76 7.46,7.46 0 0 1 1.44,2.82 12.69,12.69 0 0 1 0.44,3.34 13.59,13.59 0 0 1 -0.44,3.53 9.34,9.34 0 0 1 -1.23,2.82 6.77,6.77 0 0 1 -1.66,1.79 6.49,6.49 0 0 1 -2,0.92 13.63,13.63 0 0 1 -3.57,0.42 16.32,16.32 0 0 1 -2.69,-0.24 c -0.107,-0.96 -0.16,-2.94 -0.16,-5.94 z m 17.17,7.71 3.49,0.11 V 35 a 6.49,6.49 0 0 1 -2.16,-0.27 0.56,0.56 0 0 1 -0.24,-0.51 c 0.148,-0.89 0.4,-1.759 0.75,-2.59 l 0.66,-1.81 h 7.81 l 1.35,3.28 c 0.185,0.391 0.303,0.81 0.35,1.24 a 0.45,0.45 0 0 1 -0.23,0.43 8.8,8.8 0 0 1 -2.12,0.23 v 1.25 l 5.31,-0.11 4.21,0.11 V 35 l -0.67,-0.07 a 4.7,4.7 0 0 1 -0.88,-0.11 0.9,0.9 0 0 1 -0.31,-0.18 1.46,1.46 0 0 1 -0.29,-0.39 l -0.61,-1.39 -0.94,-2.07 -6.72,-15.85 h -2.16 l -1.33,3.44 -3.95,9.75 a 548.915,548.915 0 0 1 -1.51,3.71 257.941,257.941 0 0 1 -1,2.31 1.74,1.74 0 0 1 -0.34,0.45 1.08,1.08 0 0 1 -0.4,0.21 c -0.483,0.085 -0.97,0.138 -1.46,0.16 v 1.25 l 3.47,-0.11 z m 6.36,-15.94 3.24,7.8 h -6.35 L 182,20.17 Z M 63.08,2.81 A 0.51,0.51 0 0 1 63.29,3 c 0.05,0.131 0.077,0.27 0.08,0.41 v 5.66 a 2.32,2.32 0 0 0 0.84,1.48 2.9,2.9 0 0 0 1,0.51 6.06,6.06 0 0 0 1.8,0.26 5.37,5.37 0 0 0 1.45,-0.18 3.22,3.22 0 0 0 1.09,-0.53 2.71,2.71 0 0 0 0.74,-0.8 2.81,2.81 0 0 0 0.33,-1 8.8,8.8 0 0 0 0.08,-1.18 V 6.1 4.3 A 9.37,9.37 0 0 1 70.81,3 0.36,0.36 0 0 1 70.93,2.81 1.74,1.74 0 0 1 71.67,2.71 V 2.2 L 70.29,2.24 H 68.74 V 2.72 A 2.57,2.57 0 0 1 69.65,2.85 0.3,0.3 0 0 1 69.8,3 c 0.073,0.328 0.103,0.664 0.09,1 v 3.3 a 5,5 0 0 1 -0.22,1.84 1.75,1.75 0 0 1 -0.75,0.78 2.81,2.81 0 0 1 -1.41,0.3 3.08,3.08 0 0 1 -1.22,-0.22 1.69,1.69 0 0 1 -0.74,-0.59 2.09,2.09 0 0 1 -0.3,-1 V 4.8 A 10.45,10.45 0 0 1 65.29,3.06 0.31,0.31 0 0 1 65.42,2.84 1.93,1.93 0 0 1 66.29,2.72 V 2.2 h -1.12 l -0.88,0.04 -2,-0.04 v 0.52 l 0.83,0.09 z m 11.29,8.27 h 3.05 V 10.54 H 77.29 A 5.58,5.58 0 0 1 76.69,10.49 0.44,0.44 0 0 1 76.48,10.42 0.26,0.26 0 0 1 76.39,10.3 5,5 0 0 1 76.31,9.4 V 4.2 c 2.507,3.06 4.443,5.353 5.81,6.88 l 1.09,0.16 0.08,-0.05 C 83.23,10.59 83.2,8.883 83.2,6.07 V 4.4 a 7.06,7.06 0 0 1 0.09,-1.46 0.16,0.16 0 0 1 0.07,-0.1 c 0.3,-0.094 0.616,-0.132 0.93,-0.11 V 2.2 h -3 v 0.53 c 0.339,-0.03 0.68,0.015 1,0.13 a 0.45,0.45 0 0 1 0.11,0.31 c 0.053,0.4 0.08,1.733 0.08,4 V 8.64 C 81.893,8.033 81.153,7.197 80.26,6.13 A 110.922,110.922 0 0 1 77.06,2.2 h -2.69 v 0.53 c 0.271,0.01 0.542,0.036 0.81,0.08 a 0.41,0.41 0 0 1 0.2,0.1 0.47,0.47 0 0 1 0.09,0.21 c 0.016,0.2 0.016,0.4 0,0.6 v 5.22 c -0.033,0.62 -0.063,1.01 -0.09,1.17 a 0.56,0.56 0 0 1 -0.08,0.24 0.28,0.28 0 0 1 -0.12,0.08 7,7 0 0 1 -0.86,0.07 v 0.54 z M 89,2.24 h -1.83 v 0.52 c 0.267,0 0.535,0.017 0.8,0.05 a 0.31,0.31 0 0 1 0.15,0.07 0.27,0.27 0 0 1 0.06,0.13 c 0.057,0.327 0.094,0.658 0.11,0.99 v 4.3 c 0,0.433 -0.02,0.903 -0.06,1.41 v 0.6 a 0.2,0.2 0 0 1 -0.06,0.1 0.38,0.38 0 0 1 -0.18,0.07 h -0.76 v 0.56 h 4.03 v -0.52 a 6,6 0 0 1 -0.76,0 A 0.48,0.48 0 0 1 90.29,10.4 0.26,0.26 0 0 1 90.2,10.26 3.45,3.45 0 0 1 90.14,9.41 V 5.7 4.02 3.4 a 1.51,1.51 0 0 1 0.05,-0.4 0.21,0.21 0 0 1 0.1,-0.12 0.44,0.44 0 0 1 0.17,-0.07 6.25,6.25 0 0 1 0.77,0 V 2.2 h -2.2 z m 10.14,8.88 c 0.26,-0.72 0.753,-1.953 1.48,-3.7 l 0.86,-2 0.45,-1.05 a 6,6 0 0 1 0.72,-1.44 2.1,2.1 0 0 1 0.72,-0.13 V 2.2 h -2.98 v 0.56 h 0.93 a 0.22,0.22 0 0 1 0.09,0.08 0.31,0.31 0 0 1 0,0.16 0.8,0.8 0 0 1 0,0.15 c -0.04,0.173 -0.157,0.507 -0.35,1 a 73.78,73.78 0 0 1 -0.45,1.2 L 99.2,8.84 97.6,5 V 4.88 L 97.29,4.27 A 5.69,5.69 0 0 1 96.87,3.06 0.22,0.22 0 0 1 96.92,2.9 0.36,0.36 0 0 1 97.11,2.81 3.93,3.93 0 0 1 97.88,2.75 V 2.2 h -4.13 v 0.56 a 2.06,2.06 0 0 1 0.79,0.11 c 0.163,0.157 0.289,0.349 0.37,0.56 0.16,0.32 0.593,1.32 1.3,3 l 0.9,2.15 1,2.53 h 1 z M 108.29,11 h 3.08 c 0.383,0.02 0.767,0.02 1.15,0 l 0.08,-0.08 a 19.6,19.6 0 0 1 0.14,-2.07 h -0.45 a 6.68,6.68 0 0 1 -0.24,1.15 0.23,0.23 0 0 1 -0.08,0.11 2.05,2.05 0 0 1 -0.71,0.13 h -2.47 V 6.85 a 9.13,9.13 0 0 1 1,0 7.5,7.5 0 0 1 1.13,0.07 c 0.11,0.01 0.208,0.07 0.27,0.16 0.095,0.293 0.129,0.603 0.1,0.91 h 0.51 V 5.21 h -0.51 a 3.28,3.28 0 0 1 -0.09,0.8 0.24,0.24 0 0 1 -0.09,0.13 1.16,1.16 0 0 1 -0.4,0 h -1.9 V 4.82 a 16.15,16.15 0 0 1 0.09,-1.83 h 1.15 a 11,11 0 0 1 1.23,0.07 1.5,1.5 0 0 1 0.51,0.1 0.23,0.23 0 0 1 0.08,0.13 c 0.044,0.305 0.064,0.612 0.06,0.92 h 0.49 l 0.06,-0.92 0.12,-0.92 V 2.29 L 112.29,2.2 h -6.46 v 0.54 c 0.31,-0.003 0.62,0.034 0.92,0.11 a 0.2,0.2 0 0 1 0.1,0.1 c 0.07,0.288 0.1,0.584 0.09,0.88 v 4.09 c 0,0.333 -0.017,0.863 -0.05,1.59 0,0.4 0,0.69 -0.06,0.86 -0.192,0.147 -0.4,0.27 -0.62,0.37 v 0.34 z m 8.35,-8.18 a 0.23,0.23 0 0 1 0.09,0.11 c 0.068,0.329 0.095,0.665 0.08,1 V 7.6 l -0.05,1.85 a 5.77,5.77 0 0 1 -0.06,0.75 0.41,0.41 0 0 1 -0.05,0.18 0.2,0.2 0 0 1 -0.11,0.06 4.9,4.9 0 0 1 -0.85,0.07 v 0.56 h 4.02 v -0.55 a 6.36,6.36 0 0 1 -0.74,0 0.49,0.49 0 0 1 -0.18,-0.07 0.26,0.26 0 0 1 -0.08,-0.09 1.54,1.54 0 0 1 -0.07,-0.46 v -1.49 -2 -2.4 -1 a 3.59,3.59 0 0 1 0.6,-0.05 3.21,3.21 0 0 1 1,0.1 c 0.28,0.106 0.52,0.294 0.69,0.54 0.2,0.294 0.299,0.645 0.28,1 a 2.06,2.06 0 0 1 -0.27,1 1.49,1.49 0 0 1 -0.65,0.65 2.61,2.61 0 0 1 -1.15,0.16 l -0.07,0.21 c 0.15,0.119 0.282,0.26 0.39,0.42 0.273,0.367 0.607,0.873 1,1.52 l 1.36,2.24 c 0.065,0.113 0.115,0.234 0.15,0.36 h 2.42 v -0.64 a 1.25,1.25 0 0 1 -0.4,-0.05 0.65,0.65 0 0 1 -0.21,-0.16 c -0.073,-0.073 -0.267,-0.32 -0.58,-0.74 l -0.43,-0.63 -1,-1.47 L 121.7,7.35 121.5,7 c -0.13,-0.2 -0.26,-0.39 -0.36,-0.58 a 3.16,3.16 0 0 0 1.46,-1 c 0.313,-0.4 0.482,-0.893 0.48,-1.4 a 1.74,1.74 0 0 0 -0.35,-1.1 1.62,1.62 0 0 0 -0.84,-0.59 5.75,5.75 0 0 0 -1.49,-0.14 h -4.65 v 0.53 c 0.314,0.002 0.627,0.046 0.93,0.13 z m 16.39,0.63 a 7.37,7.37 0 0 1 0.13,-0.81 l -0.05,-0.15 a 4.32,4.32 0 0 0 -1.1,-0.35 7,7 0 0 0 -1.3,-0.12 5.58,5.58 0 0 0 -1.26,0.14 3.29,3.29 0 0 0 -1.1,0.47 2.36,2.36 0 0 0 -0.79,0.93 2.9,2.9 0 0 0 -0.3,1.31 2.68,2.68 0 0 0 0.17,0.95 2,2 0 0 0 0.5,0.75 c 0.252,0.226 0.554,0.39 0.88,0.48 0.24,0.073 0.743,0.19 1.51,0.35 a 4.93,4.93 0 0 1 1.12,0.36 c 0.2,0.102 0.364,0.262 0.47,0.46 0.106,0.214 0.157,0.451 0.15,0.69 a 1.7,1.7 0 0 1 -0.21,0.85 1.42,1.42 0 0 1 -0.69,0.59 2.59,2.59 0 0 1 -1.08,0.21 2.76,2.76 0 0 1 -1.28,-0.3 2,2 0 0 1 -0.83,-0.69 7.94,7.94 0 0 1 -0.07,-1.14 h -0.51 a 9.27,9.27 0 0 1 -0.2,2.2 6.63,6.63 0 0 0 1.34,0.5 6,6 0 0 0 1.39,0.15 4.92,4.92 0 0 0 1.83,-0.3 c 0.34,-0.138 0.653,-0.33 0.93,-0.57 a 3.05,3.05 0 0 0 0.71,-0.85 c 0.233,-0.44 0.35,-0.932 0.34,-1.43 A 2.67,2.67 0 0 0 133.61,7.3 2,2 0 0 0 133.3,6.68 1.73,1.73 0 0 0 132.8,6.25 3.26,3.26 0 0 0 131.97,5.93 l -0.85,-0.16 -1,-0.19 a 2.81,2.81 0 0 1 -0.73,-0.28 1,1 0 0 1 -0.38,-0.41 1.54,1.54 0 0 1 -0.14,-0.68 1.34,1.34 0 0 1 0.47,-1 1.9,1.9 0 0 1 1.34,-0.44 2.66,2.66 0 0 1 1.09,0.22 c 0.266,0.1 0.5,0.27 0.68,0.49 0.04,0.332 0.06,0.666 0.06,1 h 0.53 c 0,-0.43 0,-0.78 0.06,-1 z m 5.64,-1.23 h -1.83 v 0.54 a 6.7,6.7 0 0 1 0.8,0.05 0.31,0.31 0 0 1 0.15,0.07 0.27,0.27 0 0 1 0.06,0.13 8,8 0 0 1 0.08,1 V 8.3 c 0,0.433 -0.017,0.903 -0.05,1.41 v 0.6 a 0.2,0.2 0 0 1 -0.06,0.1 0.38,0.38 0 0 1 -0.18,0.07 h -0.76 v 0.56 h 4.03 v -0.52 a 6,6 0 0 1 -0.76,0 0.48,0.48 0 0 1 -0.19,-0.08 0.25,0.25 0 0 1 -0.09,-0.14 3.44,3.44 0 0 1 -0.06,-0.85 V 5.7 4.02 3.4 a 1.52,1.52 0 0 1 0.08,-0.4 0.22,0.22 0 0 1 0.07,-0.1 0.45,0.45 0 0 1 0.17,-0.07 6.23,6.23 0 0 1 0.76,0 V 2.2 h -2.2 z m 8.84,8.78 c 0.567,0 1.26,0.017 2.08,0.05 v -0.49 a 3,3 0 0 1 -0.91,-0.11 0.38,0.38 0 0 1 -0.19,-0.24 10.43,10.43 0 0 1 -0.07,-1.65 V 4.76 3.02 h 0.91 c 0.487,0 0.903,0.017 1.25,0.05 a 0.43,0.43 0 0 1 0.2,0 0.6,0.6 0 0 1 0.08,0.27 c 0.047,0.311 0.074,0.625 0.08,0.94 h 0.52 V 2.89 a 6.52,6.52 0 0 1 0.07,-0.68 l -0.06,-0.06 h -8.02 l -0.06,0.06 c 0,0.213 0.02,0.413 0.06,0.6 0.04,0.187 0.04,0.677 0,1.47 h 0.52 c 0.007,-0.335 0.04,-0.67 0.1,-1 a 0.42,0.42 0 0 1 0.08,-0.22 0.55,0.55 0 0 1 0.24,-0.05 h 2.12 v 5.54 a 10.3,10.3 0 0 1 -0.07,1.64 0.39,0.39 0 0 1 -0.19,0.25 3.12,3.12 0 0 1 -0.91,0.1 v 0.52 c 0.78,-0.033 1.473,-0.05 2.08,-0.05 z m 10.4,-6.38 A 15.08,15.08 0 0 0 156.99,3.04 4,4 0 0 0 156.5,2.41 2.89,2.89 0 0 0 155.94,2 l -0.7,0.17 -1.35,0.27 V 3 a 2.13,2.13 0 0 1 0.56,0 c 0.168,0.116 0.319,0.254 0.45,0.41 a 10.2,10.2 0 0 1 1,1.38 c 0.453,0.707 0.88,1.423 1.28,2.15 a 1.8,1.8 0 0 1 0.24,0.6 v 2.44 a 0.94,0.94 0 0 1 -0.07,0.38 0.3,0.3 0 0 1 -0.17,0.1 6.83,6.83 0 0 1 -0.85,0.06 v 0.56 h 4.12 v -0.56 a 5.21,5.21 0 0 1 -0.84,-0.05 0.35,0.35 0 0 1 -0.19,-0.11 1.2,1.2 0 0 1 -0.1,-0.44 c -0.02,-0.39 -0.02,-0.78 0,-1.17 V 7.66 a 2.59,2.59 0 0 1 0,-0.48 c 0.04,-0.167 0.1,-0.328 0.18,-0.48 0.14,-0.267 0.507,-0.867 1.1,-1.8 0.593,-0.933 1.157,-1.74 1.69,-2.42 V 2.2 h -1 c -0.06,0.12 -0.21,0.39 -0.44,0.79 l -1.2,2.12 -0.8,1.29 c -0.1,-0.22 -0.397,-0.807 -0.89,-1.76 z"
         fill-rule="nonzero"
         id="path8"
         style="fill:#ffffff;fill-opacity:1" />
      <path
         d="m 36.21,30.38 v -8.67 h 7.99 v -5.72 h -7.99 v -8.1 h 8.77 v 3.14 h 5.79 V 2.22 H 27.59 v 5.67 h 2.18 V 30.38 H 27.6 V 36.1 H 38.3 V 30.38 Z M 24.58,23.29 V 7.89 h 2.14 V 2.22 H 16.01 v 5.67 h 2.09 v 13.49 c 0,5.66 -0.65,8.37 -4.71,8.37 C 9.33,29.75 8.67,27 8.67,21.38 V 7.89 h 2.07 V 2.22 H 0 v 5.67 h 2.13 v 15.4 c 0,3.37 0,6.12 1.59,8.6 1.77,2.8 5,4.59 9.66,4.59 8.26,0 11.2,-4.31 11.2,-13.19 z"
         id="path10"
         style="fill:#ffffff;fill-opacity:1" />
    </g>
  </g>
</svg>
